<svg id="ã‚¢ã‚¤ã‚³ãƒ³_" data-name="ã‚¢ã‚¤ã‚³ãƒ³â‘¡" xmlns="http://www.w3.org/2000/svg" xmlns:xlink="http://www.w3.org/1999/xlink" viewBox="0 0 489.15 491.78"><defs><style>.cls-1{fill:none;}.cls-2{fill:#3ab9b6;}.cls-3{fill:#fff;}.cls-4{clip-path:url(#clip-path);}.cls-5{fill:#cac43b;}.cls-6{fill:#d488b7;}</style><clipPath id="clip-path" transform="translate(-5.39 -1.74)"><circle class="cls-1" cx="250" cy="248.98" r="244.54"/></clipPath></defs><circle class="cls-2" cx="244.61" cy="247.24" r="244.54"/><g id="ãƒ•ã‚©ãƒ³ãƒˆã®ã‚³ãƒ”ãƒ¼"><g id="_1009ä¿®æ­£" data-name="1009ä¿®æ­£"><path class="cls-3" d="M259.6,420.7a5.52,5.52,0,0,0,1.12,3.61,3.74,3.74,0,0,0,3.08,1.38A9.22,9.22,0,0,0,269,424a22.87,22.87,0,0,0,4.53-3.93,29.33,29.33,0,0,0,4.33-5.65,2.46,2.46,0,0,1,.65-.91,4.13,4.13,0,0,1,.79-.59,2.16,2.16,0,0,1,1.18-.33,2.75,2.75,0,0,1,1.9.78,2.45,2.45,0,0,1,.86,1.84,2.54,2.54,0,0,1-.2,1c-.13.3-.29.63-.46,1a12.18,12.18,0,0,0-.52,1.18,46.55,46.55,0,0,1-6.43,8.13,37.27,37.27,0,0,1-7.15,5.51,17.15,17.15,0,0,1-9,2.5,21.64,21.64,0,0,1-6.5-.86,15.82,15.82,0,0,1-4.59-2.23,12.22,12.22,0,0,1-3.08-3.14,13,13,0,0,1-1.71-3.61,37.1,37.1,0,0,1-3.6,3.61,28.09,28.09,0,0,1-4.4,3.14,25.29,25.29,0,0,1-4.92,2.23,15.85,15.85,0,0,1-5,.86,12.33,12.33,0,0,1-4.66-1,15.35,15.35,0,0,1-4.39-2.69,14.79,14.79,0,0,1-3.28-4.06,10.09,10.09,0,0,1-1.31-5,41.2,41.2,0,0,1,1.18-8.79q1.17-5.25,2.75-10.69t3.35-10.3c1.18-3.24,2.16-5.77,3-7.61a5.16,5.16,0,0,1,1.44-1.77,3.3,3.3,0,0,1,2.1-.72,7.49,7.49,0,0,1,3.28.91,23.22,23.22,0,0,1,3.41,2.1,16,16,0,0,1,2.63,2.43,3.59,3.59,0,0,1,1.05,2,20,20,0,0,1-1.32,6.7c-.87,2.45-1.86,5.09-3,7.93s-2.08,5.82-2.95,8.93a34.2,34.2,0,0,0-1.31,9.38,4.8,4.8,0,0,0,.79,2.75,2.51,2.51,0,0,0,2.23,1.18,7.31,7.31,0,0,0,3.28-.85,15.73,15.73,0,0,0,3.28-2.23,22.86,22.86,0,0,0,2.88-3,17.57,17.57,0,0,0,2.1-3.21,52.94,52.94,0,0,0,2.49-6.43q1.46-4.34,3-9.19t3-9.51a78.2,78.2,0,0,1,2.62-7.41,5.16,5.16,0,0,1,1.44-1.77,3.54,3.54,0,0,1,2.24-.72,7.09,7.09,0,0,1,3.21.91,25.5,25.5,0,0,1,3.35,2.1,16.35,16.35,0,0,1,2.62,2.43,3.59,3.59,0,0,1,1.05,2,20.19,20.19,0,0,1-1.18,6.5q-1.18,3.48-2.56,7.41c-.92,2.63-1.77,5.4-2.56,8.33A34.88,34.88,0,0,0,259.6,420.7Z" transform="translate(-5.39 -1.74)"/><path class="cls-3" d="M328.41,413.35a2.75,2.75,0,0,0-1.9-.78,2.16,2.16,0,0,0-1.18.33,4.13,4.13,0,0,0-.79.59,2.46,2.46,0,0,0-.65.91,27.14,27.14,0,0,1-5.38,6,32.12,32.12,0,0,1-6.43,4.13,18.51,18.51,0,0,1-8.4,1.9,11.59,11.59,0,0,1-8.13-3.14q-3.42-3.15-3.41-9.06a19,19,0,0,0,2,.4,12.58,12.58,0,0,0,3,.39,22.07,22.07,0,0,0,10.3-2.16,20.37,20.37,0,0,0,6.56-5.19,19.35,19.35,0,0,0,3.48-6.36,19.6,19.6,0,0,0,1.05-5.71,12.43,12.43,0,0,0-1.12-5.11,14.05,14.05,0,0,0-3.08-4.4,15.74,15.74,0,0,0-4.59-3.08,13.54,13.54,0,0,0-5.64-1.18,21.37,21.37,0,0,0-9.25,2.36,31.54,31.54,0,0,0-9.12,6.75,37.19,37.19,0,0,0-7,10.57A33.18,33.18,0,0,0,276,415.19a17.69,17.69,0,0,0,1.7,7.74,18.26,18.26,0,0,0,4.73,6.1,22,22,0,0,0,7.21,4,27.89,27.89,0,0,0,9.19,1.45,30.86,30.86,0,0,0,12.92-2.5,41.25,41.25,0,0,0,9.12-5.51,33.5,33.5,0,0,0,7.21-8.13c.18-.44.35-.83.53-1.18s.33-.68.46-1a2.54,2.54,0,0,0,.2-1A2.45,2.45,0,0,0,328.41,413.35ZM294.1,402.86a34.3,34.3,0,0,1,3.35-6.69,24.19,24.19,0,0,1,4.66-5.38,8.25,8.25,0,0,1,5.38-2.23c1.57,0,2.36.87,2.36,2.62a13.42,13.42,0,0,1-1.31,5.12,25.39,25.39,0,0,1-3.61,5.84,22.17,22.17,0,0,1-5.45,4.79,12.43,12.43,0,0,1-6.69,2A18,18,0,0,1,294.1,402.86Z" transform="translate(-5.39 -1.74)"/><path class="cls-3" d="M371.31,393.22a18.82,18.82,0,0,0-4.06-6.17,16.65,16.65,0,0,0-6.1-3.87,21.89,21.89,0,0,0-7.61-1.31A27.28,27.28,0,0,0,343,384.1a31.17,31.17,0,0,0-9.84,6.56,33.74,33.74,0,0,0-7.28,10.69A35.79,35.79,0,0,0,323.1,416a16.44,16.44,0,0,0,1.64,7.21,18.39,18.39,0,0,0,4.46,5.91,22,22,0,0,0,14.37,5.38,22.83,22.83,0,0,0,11.93-3.22,33.48,33.48,0,0,0,9.25-8.13,38.26,38.26,0,0,0,6-10.76,32.78,32.78,0,0,0,2.1-11.09A20.6,20.6,0,0,0,371.31,393.22ZM357.8,406.47a59.22,59.22,0,0,1-2.82,10.3,31.14,31.14,0,0,1-4.4,8.13q-2.55,3.28-5.7,3.28a5.25,5.25,0,0,1-4.66-2.49,11.53,11.53,0,0,1-1.64-6.43A46.76,46.76,0,0,1,340.09,407a43,43,0,0,1,3.8-9.71,23.88,23.88,0,0,1,4.92-6.43,7.69,7.69,0,0,1,4.86-2.29,4.42,4.42,0,0,1,3.67,1.9q1.44,1.91,1.44,6.36A54.6,54.6,0,0,1,357.8,406.47Z" transform="translate(-5.39 -1.74)"/><path class="cls-3" d="M180.92,358a13.8,13.8,0,0,1,3.16-3.2,36.62,36.62,0,0,1,4.09-2.71,30.2,30.2,0,0,1,3.83-1.87,16.39,16.39,0,0,1,2.33-.81c1.48-.28,2.33.13,2.53,1.22a2,2,0,0,1-.44,1.18c-.34.55-.74,1.31-1.21,2.28s-1,2.17-1.57,3.57a26,26,0,0,0-1.42,5c-.35,1.61-.65,3.12-.9,4.54s-.48,3.06-.65,4.91-.36,4.1-.55,6.76-.33,6.06-.44,10.2a113.25,113.25,0,0,1-1.92,18.42,44.73,44.73,0,0,1-4.25,12.49,20.91,20.91,0,0,1-6.64,7.55,23.83,23.83,0,0,1-9,3.57,29.2,29.2,0,0,1-11.64-.05,33.78,33.78,0,0,1-9.84-3.66,25.62,25.62,0,0,1-7-5.76,14.42,14.42,0,0,1-3.32-6.35,9.24,9.24,0,0,1,1.14-6.21,23.72,23.72,0,0,1,4.52-5.88,33.48,33.48,0,0,1,6.09-4.66,18.38,18.38,0,0,1,5.84-2.43c1.95-.37,3,.07,3.28,1.32a2.13,2.13,0,0,1-.14,1.48,9.14,9.14,0,0,1-1.46,1.61,21.3,21.3,0,0,0-4.51,6.6,13.31,13.31,0,0,0-1.07,8.14,11.26,11.26,0,0,0,1.61,4.06,10.68,10.68,0,0,0,2.93,3,11.39,11.39,0,0,0,3.9,1.69,10.59,10.59,0,0,0,4.49.06q5.39-1,8.62-9.25t4.24-25.4q.28-6.84.65-11.69t.9-8.41a37.65,37.65,0,0,1,1.43-6.21A26.55,26.55,0,0,1,180.92,358Z" transform="translate(-5.39 -1.74)"/><path class="cls-3" d="M203.5,394.19c-3.28.61-5.59.71-6.92.27s-2.06-1-2.18-1.59a2,2,0,0,1,.27-1.5,1.62,1.62,0,0,1,1.11-.82,24,24,0,0,0,8.89-3.67,27,27,0,0,0,7.16-7,27.87,27.87,0,0,0,4.28-9.47,25.79,25.79,0,0,0,.2-11.12q-1.6-8.55-8.64-12.43t-18.26-1.77a56,56,0,0,0-14.24,4.5,34.07,34.07,0,0,0-9.84,6.94,21.85,21.85,0,0,0-5.25,8.81,21,21,0,0,0-.47,10.08,9.94,9.94,0,0,0,1.79,4.33,16.47,16.47,0,0,0,2.56,2.67,16.91,16.91,0,0,0,2.37,1.61c.71.39,1.11.78,1.19,1.17.27,1.48-.4,2.38-2,2.69a18.73,18.73,0,0,1-5.76,0,25,25,0,0,1-6.65-1.84,20.15,20.15,0,0,1-5.79-3.75,10.42,10.42,0,0,1-3.23-5.88,18.85,18.85,0,0,1,2-12.68,36.74,36.74,0,0,1,9.53-11.18,64.36,64.36,0,0,1,14.82-8.79,83.54,83.54,0,0,1,17.93-5.5,60.09,60.09,0,0,1,16.54-1,39.4,39.4,0,0,1,13.35,3.36,27.26,27.26,0,0,1,9.37,7,20.93,20.93,0,0,1,4.71,9.89,23.66,23.66,0,0,1-1.2,13.56A36.15,36.15,0,0,1,224,382.2a41,41,0,0,1-10.19,8A35.48,35.48,0,0,1,203.5,394.19Z" transform="translate(-5.39 -1.74)"/></g></g><g id="æ‰‹ã®ã‚³ãƒ”ãƒ¼"><g class="cls-4"><g id="å³æ‰‹"><path class="cls-3" d="M399.15,457l-28.38,5.71c-.08-1.38-.18-2.71-.23-4.05-.3-8.15-.41-16.32,1-24.39A132.74,132.74,0,0,0,373,417.41,59.69,59.69,0,0,1,379.08,393c3.11-6.28,5.53-12.89,8.27-19.35a15.63,15.63,0,0,1,1.26-2.44c1.16-1.77,2.74-2.94,5-2.56a5.84,5.84,0,0,1,4.9,4.09,9.67,9.67,0,0,1,.13,5c-1.13,5.65-2.29,11.29-3.36,17a4.79,4.79,0,0,0,1.7,4.64,3,3,0,0,0,2.31.65,8.07,8.07,0,0,0,3.72-1.71A105,105,0,0,0,415.19,384a9.81,9.81,0,0,0,1.62-8.44c-1.56-6.16-3.05-12.34-4.52-18.52a15.42,15.42,0,0,1-.43-3.38,4.82,4.82,0,0,1,3.64-4.93,3.64,3.64,0,0,1,3.26.48,10.14,10.14,0,0,1,3.59,4.78c2.78,6.68,5.5,13.38,8.25,20.07a13.91,13.91,0,0,1,.9,8A195.48,195.48,0,0,1,424,410.9a25.1,25.1,0,0,1-5.32,8.42q-10.16,11.55-20.41,23a2.42,2.42,0,0,0-.77,2.21c.58,3.85,1,7.72,1.52,11.58C399.1,456.38,399.11,456.64,399.15,457Z" transform="translate(-5.39 -1.74)"/><path class="cls-3" d="M409.29,355.47c.91,3.56,1.87,7.1,2.71,10.66q1.37,5.73,2.54,11.51a5.7,5.7,0,0,1-1.92,5.51c-.48-1.53-.92-3-1.44-4.49-1.62-4.56-3.33-9.1-4.9-13.68a19.44,19.44,0,0,1-1.06-4.81A4.49,4.49,0,0,1,409.29,355.47Z" transform="translate(-5.39 -1.74)"/></g><g id="å·¦æ‰‹"><path class="cls-3" d="M141.33,467.84l-28.65-3.73c0-.48,0-.95,0-1.41.23-3.78.45-7.56.71-11.33a2,2,0,0,0-.7-1.72q-11.79-11.59-23.55-23.22a21.46,21.46,0,0,1-4.74-7.11,207,207,0,0,1-9.06-27,16.18,16.18,0,0,1,.43-9.62c2.27-6.71,4.49-13.45,6.82-20.14a14.33,14.33,0,0,1,2-3.61,3.81,3.81,0,0,1,4.24-1.68c2,.54,3.65,1.69,3.83,3.9a24.44,24.44,0,0,1-.32,5.46c-1,6.46-2.07,12.9-3.1,19.36a6.45,6.45,0,0,0,1.15,4.69,66.79,66.79,0,0,0,9.15,10.43c1.59,1.57,3.25,3.09,4.9,4.6a6.59,6.59,0,0,0,4,1.67,2.89,2.89,0,0,0,2.84-1.34,5.58,5.58,0,0,0,.87-4.6c-1.53-5.48-3.06-11-4.46-16.48a12.14,12.14,0,0,1-.29-4.45,5.6,5.6,0,0,1,4.55-4.82c2.36-.62,4,.54,5.39,2.35a10.13,10.13,0,0,1,1.19,2,236.6,236.6,0,0,0,11.5,22.34c3.38,5.95,4.89,12.47,5.79,19.18.62,4.66,1.14,9.33,1.88,14,.65,4.09,1.84,8.11,2.27,12.22.68,6.53.93,13.1,1.35,19.66A2.58,2.58,0,0,1,141.33,467.84Z" transform="translate(-5.39 -1.74)"/><path class="cls-3" d="M94,391.29c-1.53-1.63-2.57-3.45-2.1-6,1.09-5.92,2-11.87,3-17.81.22-1.3.35-2.61.52-3.9a4.4,4.4,0,0,1,4.51,4.06,19.46,19.46,0,0,1-.72,5.3C97.51,379.06,95.71,385.15,94,391.29Z" transform="translate(-5.39 -1.74)"/></g></g></g><g id="å·¦ä¸Šè‘‰ã®ã‚³ãƒ”ãƒ¼"><g id="ãƒ‘ãƒ³ãƒŽã‚­ã®ã‚³ãƒ”ãƒ¼"><g class="cls-4"><path class="cls-5" d="M101.66,81.22c32.75-6.94,58-4.17,73.42-1.06,32.2,6.5,66.35,23.49,76.68,29.16.38.21,4.7,2.59,10.8,5.4,13.84,6.39,28.19,13,31.32,9.72,4.49-4.72-11.55-32.83-33.48-51.84C228.43,44.91,187.84,40,160,40.2a132.56,132.56,0,0,1,42.26-1.74c50.52,6.21,96,42.78,96,42.78h0a97.69,97.69,0,0,0,16.2,3.24c7.85.89,11.78,1.34,13,0,4.39-5-9-30.53-31.32-46.44C269.92,19.44,240.7,20.56,241,18.6c.2-1.59,19.42-1.49,49.68,2.16C334.31,26,361.49,32.33,361.75,31.4,362.09,30.15,311.9,4.22,253.42,2,166-1.37,100.17,31.26,77.16,56.54L56.54,77.16C40,97.4,2.25,170,5.6,257.34c2.24,58.48,26.2,104.93,27.45,104.59.93-.25-7-27.43-12.29-71.11C17.1,260.56,17,241.34,18.6,241.14c1.95-.25.84,29,19.44,55.08,15.9,22.33,41.46,35.71,46.44,31.32,1.34-1.18.89-5.11,0-13a97.69,97.69,0,0,0-3.24-16.2h0s-36.57-45.46-42.78-96a132.58,132.58,0,0,1,1.74-42.26c-.26,27.88,4.71,68.47,32.4,100.44,19,21.93,47.12,38,51.84,33.48,3.28-3.12-3.34-17.47-9.72-31.32-2.81-6.1-5.19-10.42-5.4-10.8-5.68-10.32-22.66-44.47-29.16-76.68-3.12-15.45-5.88-40.67,1.06-73.42Z" transform="translate(-5.39 -1.74)"/></g><rect class="cls-5" x="85.79" y="66.71" width="29.16" height="67.31" transform="translate(-46.96 98.63) rotate(-45)"/><circle class="cls-5" cx="134.78" cy="138.44" r="40.01"/></g></g><g id="_å®Œæˆã®ã‚³ãƒ”ãƒ¼" data-name="ðŸ¦‰å®Œæˆã®ã‚³ãƒ”ãƒ¼"><path class="cls-3" d="M215.42,159.5a10.94,10.94,0,0,1,1.63,3.49c20.4-8.73,40.2-1.52,40.2-1.52,2.4-2.29,1.48-11.48,1.48-11.48,4.17,1.7,16.42,5.66,20.35,16.73,3.05,8.57,3.33,23,2.22,31.16-.45,3.36-4,6.67-5.54,11.81-1,3.31-.85,4.6-2.6,10.49-.58,1.95-1.11,3.54-1.48,4.59l-10.36,7.87c.32-8.16-.24-27.42-14.81-40.34-3-2.69-7.83-6.82-14.06-6.56-9.14.39-17.53,10.06-17.4,19s8.76,15.32,11.11,17a32.57,32.57,0,0,0,5.55,3.28c-4,3.64-11.64,11.62-14.44,23.62-3.36,14.41,2.27,26,5.19,31.81,8.06,16,20.45,26.9,39.23,37.39,13.51,7.54,30.72,19.84,40.71,35.09,0,0-65.56-26.64-77-31.81-23.52-10.65-33.16-30.38-39.59-47.89-5-13.61-6.12-25.09-1.8-37.71,1.13-3.31,5.59-8.3,5.49-10.17-.41-7.56-4.06-20.61-3.7-30.83.37-10.66,6.29-19.52,15.36-27.39-.3-.85.92-15.58.92-15.58S212.09,154.24,215.42,159.5Zm33.31,65.27S226.16,239.2,230.23,271c2.9,22.65,29,30.4,64,63.63,15.91,15.08,19.16,23.72,23.68,31.16.68-30.83-41-86.15-52.92-97.42-2.5-2.36-4.64-5.73-8.51-9.83C249.84,251.5,248.73,224.77,248.73,224.77Zm42.94-.32s-25.91,11.31-21.1,31.81c1.59,6.77,3.63,10.17,13.32,19.68,13.87,13.6,24.26,39.75,28.13,49.52,5.93-13.7,7.4-32.3,6.29-42.63C315.53,257,293.61,224.75,291.67,224.45Z" transform="translate(-5.39 -1.74)"/><path id="ç›®_" data-name="ç›®â‘¡" class="cls-3" d="M227,195.56c.37,9.16,1.86,13,6.22,15.86,3.12,2,11.31,2.45,17.51.35l-9-2.61a17.05,17.05,0,0,1-8.67-5.85Z" transform="translate(-5.39 -1.74)"/></g><path class="cls-6" d="M316.4,334.53A2.71,2.71,0,0,1,318,333c.26-.09.31-.3.38-.52a15,15,0,0,1,1.29-3.09,6.35,6.35,0,0,1,4.41-3.15,25.48,25.48,0,0,1,6.27-.74c3.55.17,10.81,1.65,13.84,3.53.11.07-3.8-.28-3.66-.27,1.19,0-.21.18-.33.23a7.54,7.54,0,0,1-3.37.19,25.85,25.85,0,0,0-3.93-.34,4.77,4.77,0,0,0-2.53.76,1.77,1.77,0,0,0-.23,3,3,3,0,0,0,2.87.81c.59-.15,1.17-.24,1.76-.35,1.45-.28,2.88-.63,4.33-.94a5.37,5.37,0,0,1,1.65-.05,1.73,1.73,0,0,1,1.28.71c.47.67.44,1-.14,1.53a17.59,17.59,0,0,0-2.4,2.48,4.82,4.82,0,0,0-.71,1.32,1.5,1.5,0,0,0,.4,1.57,3.11,3.11,0,0,0,1.94.94,2.25,2.25,0,0,1,1.77,1.05c.45.66.71,1.42,1.12,2.1a1.33,1.33,0,0,0,1.86.62,2.63,2.63,0,0,0,1.56-2.35,14.84,14.84,0,0,0-.34-3.87,9.66,9.66,0,0,1,0-1.7,1.8,1.8,0,0,1,.61-1.19c.29-.27,1.77-1.39,1.94-1s-1,2-1,2.44c0,2.91,1.12,5.51,2.12,8.14a13.45,13.45,0,0,1,1.15,5.44,7.67,7.67,0,0,1-.37,2,1.9,1.9,0,0,1-.78.9,11.8,11.8,0,0,1-3.43,1.6,15,15,0,0,0-3.61,1.57,5.11,5.11,0,0,1-6.46-.86,6.56,6.56,0,0,1-1.38-2.87,12.25,12.25,0,0,0-.7-2.43,2.48,2.48,0,0,0-2.34-1.54,3.75,3.75,0,0,1-3.59-3.71,5.72,5.72,0,0,1,2.31-4.76,32.49,32.49,0,0,1,4-2.73,16.85,16.85,0,0,0,3.13-2.39c.5-.51.48-.59-.13-.94a2.73,2.73,0,0,0-2.91.17,14.13,14.13,0,0,0-3,2.82,21.79,21.79,0,0,1-5.12,4.6,6.87,6.87,0,0,1-3.42,1,2.09,2.09,0,0,1-2.28-1.82c-.13-.59-.2-1.19-.32-1.77-.25-1.24-.67-1.57-1.93-1.6a3.1,3.1,0,0,1-3.13-1.95Z" transform="translate(-5.39 -1.74)"/><path class="cls-6" d="M340.18,299a5,5,0,0,1,2.7,1.45,3.72,3.72,0,0,1,.4.49,3,3,0,0,0,2.75,1.45,11.78,11.78,0,0,1,2.37.18,2.53,2.53,0,0,1,1.7,1.34,6.75,6.75,0,0,1,.27,6.31,32.32,32.32,0,0,0-1.46,3.5,16.6,16.6,0,0,0-.55,6.07c0,.44.06.88.11,1.31s-.1.39-.37.33a1.48,1.48,0,0,1-1-1,10.37,10.37,0,0,1-.58-2.46,37.48,37.48,0,0,0-1.61-5.8,3.86,3.86,0,0,0-2.38-2.54,1.8,1.8,0,0,0-2.5,1.73,5.86,5.86,0,0,0,.33,2.2c.3,1,.68,2,1,3.07a4.9,4.9,0,0,0,1,1.58,19.33,19.33,0,0,1,1.74,2.28c.16.27.42.58.17.89s-.15,1.36-.48,1.24c-1.09-.39-2.63-2-3.64-2.6a22.12,22.12,0,0,1-2.9-1.88c-.36-.28-.46-.12-.53.23a1.61,1.61,0,0,0,1.5,1.95,13.82,13.82,0,0,1,3.5,1.15c3.12,1.54,5.75,3.6,7.22,6.87a2.23,2.23,0,0,1-1.5,3.1,1.48,1.48,0,0,1-1.33-.28,8.43,8.43,0,0,1-1.86-2.17,23.67,23.67,0,0,0-6-6.18,13.36,13.36,0,0,0-2.91-1.56.74.74,0,0,0-1.11.43,8.41,8.41,0,0,0-.41,1.09,2.54,2.54,0,0,1-.38.73.74.74,0,0,1-.82.3.73.73,0,0,1-.52-.74,2.2,2.2,0,0,1,1.05-1.77c.14-.12.41-.15.36-.4a.67.67,0,0,0-.51-.48,1.61,1.61,0,0,0-2,1.08,4.46,4.46,0,0,1-.61,1.42c-.36.48-.8.58-1.16.26a1,1,0,0,1-.08-1.39,4.07,4.07,0,0,1,.83-.5c.28-.17.61-.35.48-.74a.68.68,0,0,0-.81-.39,5,5,0,0,0-2.28.92,1.18,1.18,0,0,0-.44,1c0,.45,0,.91,0,1.36a1.69,1.69,0,0,1-.2.8.81.81,0,0,1-1.31.27,4.25,4.25,0,0,0-1.46-.83c-.89-.37-1-.66-.67-1.58a.8.8,0,0,0,0-.57,13.16,13.16,0,0,1-.39-1.4,1,1,0,0,1,.74-1.35,1.59,1.59,0,0,0,1-1.24c.19-.71.48-1.3,1.31-1.46.66-.12,1,.1.95.77a1.44,1.44,0,0,1-.25.78,1.2,1.2,0,0,0,.44,1.81,3.09,3.09,0,0,0,2.51.06A.52.52,0,0,0,330,319a.71.71,0,0,0-.44-.65.89.89,0,0,1-.56-.89,1.13,1.13,0,0,1,.64-1,.71.71,0,0,1,1.09.43,2,2,0,0,1,.08.72,2.7,2.7,0,0,0,.21,1.19,1.17,1.17,0,0,0,1.69.62.59.59,0,0,0,.23-1,3,3,0,0,0-.31-.31,1.32,1.32,0,0,1,.36-2c.46-.21.87.07.92.66s0,.94,0,1.41a2.48,2.48,0,0,0,.24,1,.92.92,0,0,0,1.14.49c.41-.15.56-.5.4-1.05a2.47,2.47,0,0,0-.29-.67.87.87,0,0,1-.11-.83.58.58,0,0,0-.21-.72,15.33,15.33,0,0,1-3.16-4.29A11.12,11.12,0,0,1,330.9,308a2.36,2.36,0,0,1,1-2.11c.58-.43,1.2-.83,1.8-1.24a2.39,2.39,0,0,0,1.18-2.47,2.47,2.47,0,0,1,1.09-2,5.59,5.59,0,0,1,2.55-1.15Z" transform="translate(-5.39 -1.74)"/><path class="cls-6" d="M367.27,324.19A16.68,16.68,0,0,1,372,325a4.83,4.83,0,0,1,3.13,3.11c.46,1.11.84,2.25,1.27,3.38a5.33,5.33,0,0,0,1,1.68,5.32,5.32,0,0,1,1.11,5.19,7.54,7.54,0,0,1-2.38,3.6,6.7,6.7,0,0,1-4.19,1.56,13.79,13.79,0,0,0-2.93.48,2.8,2.8,0,0,0-1.78,1.52,7.35,7.35,0,0,1-6.41,4.4,5.61,5.61,0,0,1-2.92-.65,12.18,12.18,0,0,1-4.95-4.7,16.14,16.14,0,0,1-2.7-8.91c0-.57-.9-1-.65-1.47a1.89,1.89,0,0,1,2.54-.49,3.34,3.34,0,0,1,1.12,2.22c0,1.74,1.93,3.27,3.45,3.57s2.61-.58,2.35-2.26c-.06-.41-.21-.9.18-1.19s.81,0,1.17.2,1,.54,1.46.8a4.38,4.38,0,0,0,2.89.61,2.12,2.12,0,0,0,1.53-3.26,2.76,2.76,0,0,0-2.41-1.49,4.28,4.28,0,0,1-1.28-.25.94.94,0,0,1-.64-1.31,8.64,8.64,0,0,0,.38-1.41.89.89,0,0,0-.4-.87,3,3,0,0,0-2.38-.4c-1.12.19-2.18.65-3.32.77-.61.07-1.45-1.19-2-1.46-.29-.14-.09.89.23.69a31.61,31.61,0,0,1,8.35-3.78A15.66,15.66,0,0,1,367.27,324.19Z" transform="translate(-5.39 -1.74)"/><path class="cls-6" d="M350.1,321.15a19.62,19.62,0,0,1,1.64-8.23,11.36,11.36,0,0,1,6.18-5.91,4.36,4.36,0,0,1,4.24.25,2.13,2.13,0,0,1,.71.78c.63,1.19,1.27,1.35,2.4.62a13.47,13.47,0,0,0,1.31-.93,4.54,4.54,0,0,1,3.68-.85,8.73,8.73,0,0,1,1.24.23,3.94,3.94,0,0,1,3,3.45,9.28,9.28,0,0,1-.23,3.71.68.68,0,0,0,.17.75c2.25,2.05,1.55,5.42-1.21,6.9a9.88,9.88,0,0,1-3.24.84c-2.5.39-5,.54-7.51,1.05a17.26,17.26,0,0,0-5.6,2c-.87.53-1.28,2.14-2.59,2.14-.5,0-.83-1.16-.62-1.62a7.62,7.62,0,0,1,3-3.14,56.08,56.08,0,0,1,5.63-3c.16-.08.32-.16.47-.25a1.45,1.45,0,0,0,.33-2.41,2.58,2.58,0,0,0-3.95.16,1.25,1.25,0,0,1-2.28-.14,3,3,0,0,1-.44-1.07c0-.39-.27-.49-.64-.48a2.88,2.88,0,0,0-2.08,1.12,15.13,15.13,0,0,0-1.86,3.18,6.52,6.52,0,0,0-.71,3.37,2.12,2.12,0,0,1,0,.44c0,.17,0,.4-.25.43a.42.42,0,0,1-.45-.37c-.08-.34-1.9-2.77-1.91-3.13C348.44,320.31,350.08,321.63,350.1,321.15Z" transform="translate(-5.39 -1.74)"/><polygon class="cls-6" points="344.21 320.43 342.36 318.85 338.46 304.84 333.08 308.83 334.45 314.21 337.62 319.38 338.84 327.25 334.88 326.23 323.38 326.23 322.54 331.29 327.18 332.34 334.03 330.97 335.3 331.5 331.56 336.77 340.15 344.89 343.08 340.67 342.57 334.34 344.21 332.84 345.63 332.55 350.79 340.88 363.97 334.34 356.17 324.86 349.57 326.79 349.12 326.92 349.11 324.86 359.65 317.04 355.85 313.49 347.84 313.49 344.21 320.43"/></svg>